<svg width="700" height="559" viewBox="0 0 700 559" fill="none" xmlns="http://www.w3.org/2000/svg">
<g clip-path="url(#clip0_1003_26918)">
<path d="M591.203 209.544C589.851 212.672 588.291 215.904 586.626 219.032C574.249 243.117 554.695 268.14 524.947 292.954C522.035 295.456 518.915 297.646 515.69 299.731C526.299 280.025 538.261 241.136 524.115 177.119C524.115 177.119 500.296 59.8242 358.944 44.4977C361.025 42.7253 463.788 -42.144 557.815 33.0289C571.857 44.1849 582.986 58.5731 590.267 75.0465C602.644 103.093 616.062 153.243 591.203 209.544Z" fill="url(#paint0_linear_1003_26918)"/>
<path d="M356.76 295.977C374.546 300.669 391.5 304.006 406.998 306.508C391.5 304.11 374.546 300.669 356.76 295.977Z" fill="#CAFF15"/>
<path d="M132.302 84.43C165.794 64.933 203.135 69.5205 231.322 78.487C257.741 86.9323 281.247 102.78 299.242 123.945C299.97 124.779 300.698 125.613 301.322 126.448C323.164 153.139 336.79 180.455 345.111 205.895C354.68 207.355 364.561 208.502 374.754 209.023C389.732 209.857 405.23 209.44 421.143 207.668C429.88 206.729 438.825 205.27 447.875 203.393C442.258 187.545 435.497 171.072 427.176 154.181C420.311 140.002 412.302 125.405 403.253 110.6C347.503 19.3705 255.765 1.95876 255.765 1.95876C174.323 -10.6569 132.823 40.3272 113.58 77.8615C108.588 87.5578 106.403 98.1925 106.924 108.619C124.086 87.5578 132.302 84.43 132.302 84.43Z" fill="url(#paint1_linear_1003_26918)"/>
<path d="M113.06 168.258C113.476 168.884 113.892 169.405 114.308 170.031C113.892 169.405 113.476 168.78 113.06 168.258Z" fill="url(#paint2_linear_1003_26918)"/>
<path d="M111.292 165.858C111.708 166.38 112.124 167.005 112.54 167.631C112.124 167.005 111.708 166.484 111.292 165.858Z" fill="url(#paint3_linear_1003_26918)"/>
<path d="M109.732 163.667C110.148 164.189 110.46 164.814 110.876 165.336C110.564 164.71 110.148 164.189 109.732 163.667Z" fill="url(#paint4_linear_1003_26918)"/>
<path d="M380.059 408.372C379.123 408.789 378.291 409.206 377.354 409.623C378.291 409.206 379.227 408.789 380.059 408.372Z" fill="url(#paint5_linear_1003_26918)"/>
<path d="M114.829 170.655C115.245 171.28 115.661 171.802 116.181 172.427C115.765 171.906 115.245 171.28 114.829 170.655Z" fill="url(#paint6_linear_1003_26918)"/>
<path d="M108.276 161.584C108.588 162.105 109.004 162.627 109.42 163.148C109.004 162.627 108.692 162.105 108.276 161.584Z" fill="url(#paint7_linear_1003_26918)"/>
<path d="M376.418 410.143C375.378 410.664 374.234 411.186 373.09 411.603C374.234 411.081 375.378 410.56 376.418 410.143Z" fill="url(#paint8_linear_1003_26918)"/>
<path d="M103.595 154.388C103.907 154.805 104.115 155.327 104.427 155.744C104.219 155.327 103.907 154.805 103.595 154.388Z" fill="url(#paint9_linear_1003_26918)"/>
<path d="M102.659 152.93C102.867 153.347 103.179 153.764 103.491 154.181C103.283 153.764 102.971 153.347 102.659 152.93Z" fill="url(#paint10_linear_1003_26918)"/>
<path d="M106.924 159.604C107.236 160.126 107.652 160.647 107.964 161.168C107.652 160.543 107.34 160.022 106.924 159.604Z" fill="url(#paint11_linear_1003_26918)"/>
<path d="M104.635 155.953C104.948 156.37 105.26 156.891 105.572 157.412C105.26 156.891 104.948 156.474 104.635 155.953Z" fill="url(#paint12_linear_1003_26918)"/>
<path d="M116.805 173.261C117.221 173.887 117.741 174.512 118.157 175.138C117.637 174.408 117.221 173.887 116.805 173.261Z" fill="url(#paint13_linear_1003_26918)"/>
<path d="M153.001 214.134C153.625 214.759 154.353 215.489 155.081 216.115C154.353 215.489 153.729 214.864 153.001 214.134Z" fill="url(#paint14_linear_1003_26918)"/>
<path d="M139.583 200.371C140.208 200.996 140.832 201.726 141.456 202.352C140.832 201.622 140.208 200.996 139.583 200.371Z" fill="url(#paint15_linear_1003_26918)"/>
<path d="M164.546 224.974C165.274 225.599 166.003 226.225 166.731 226.955C166.003 226.329 165.274 225.599 164.546 224.974Z" fill="url(#paint16_linear_1003_26918)"/>
<path d="M156.745 217.679C157.473 218.304 158.098 219.034 158.826 219.66C158.098 219.034 157.369 218.409 156.745 217.679Z" fill="url(#paint17_linear_1003_26918)"/>
<path d="M160.594 221.326C161.322 221.951 162.05 222.681 162.778 223.307C161.946 222.681 161.218 221.951 160.594 221.326Z" fill="url(#paint18_linear_1003_26918)"/>
<path d="M125.646 184.417C126.166 185.043 126.686 185.668 127.31 186.398C126.686 185.772 126.166 185.147 125.646 184.417Z" fill="url(#paint19_linear_1003_26918)"/>
<path d="M128.142 187.439C128.662 188.065 129.286 188.69 129.806 189.42C129.286 188.794 128.766 188.169 128.142 187.439Z" fill="url(#paint20_linear_1003_26918)"/>
<path d="M130.846 190.569C131.366 191.194 131.991 191.82 132.511 192.55C131.991 191.924 131.366 191.194 130.846 190.569Z" fill="url(#paint21_linear_1003_26918)"/>
<path d="M136.567 197.032C137.191 197.657 137.711 198.387 138.335 199.013C137.711 198.283 137.087 197.657 136.567 197.032Z" fill="url(#paint22_linear_1003_26918)"/>
<path d="M133.655 193.801C134.279 194.426 134.799 195.156 135.423 195.782C134.799 195.052 134.175 194.426 133.655 193.801Z" fill="url(#paint23_linear_1003_26918)"/>
<path d="M413.238 390.649C412.614 391.066 411.886 391.483 411.158 391.901C411.886 391.483 412.51 391.066 413.238 390.649Z" fill="url(#paint24_linear_1003_26918)"/>
<path d="M447.251 367.084C446.731 367.501 446.21 367.918 445.586 368.335C446.21 368.022 446.731 367.501 447.251 367.084Z" fill="url(#paint25_linear_1003_26918)"/>
<path d="M450.059 364.791C449.435 365.312 448.707 365.937 447.979 366.459C448.707 365.937 449.435 365.416 450.059 364.791Z" fill="url(#paint26_linear_1003_26918)"/>
<path d="M435.497 376.051C434.873 376.468 434.353 376.885 433.729 377.302C434.353 376.885 434.977 376.468 435.497 376.051Z" fill="url(#paint27_linear_1003_26918)"/>
<path d="M439.034 373.444C438.202 374.069 437.473 374.591 436.641 375.216C437.473 374.695 438.306 374.069 439.034 373.444Z" fill="url(#paint28_linear_1003_26918)"/>
<path d="M458.796 357.178C458.276 357.7 457.652 358.221 457.028 358.742C457.756 358.221 458.276 357.7 458.796 357.178Z" fill="url(#paint29_linear_1003_26918)"/>
<path d="M462.436 353.843C461.916 354.364 461.396 354.885 460.876 355.302C461.396 354.781 461.916 354.364 462.436 353.843Z" fill="url(#paint30_linear_1003_26918)"/>
<path d="M460.564 355.614C460.044 356.031 459.628 356.552 459.108 356.969C459.524 356.552 460.044 356.031 460.564 355.614Z" fill="url(#paint31_linear_1003_26918)"/>
<path d="M463.892 352.382C463.372 352.903 462.956 353.32 462.436 353.841C462.956 353.32 463.372 352.799 463.892 352.382Z" fill="url(#paint32_linear_1003_26918)"/>
<path d="M432.585 378.138C431.753 378.763 430.817 379.389 429.985 379.91C430.921 379.285 431.753 378.763 432.585 378.138Z" fill="url(#paint33_linear_1003_26918)"/>
<path d="M454.739 360.83C454.115 361.351 453.491 361.873 452.867 362.498C453.491 361.977 454.115 361.456 454.739 360.83Z" fill="url(#paint34_linear_1003_26918)"/>
<path d="M387.132 404.931C386.508 405.244 385.78 405.557 385.156 405.87C385.884 405.557 386.508 405.244 387.132 404.931Z" fill="url(#paint35_linear_1003_26918)"/>
<path d="M397.117 399.718C396.701 399.927 396.285 400.135 395.973 400.344C396.389 400.135 396.805 399.927 397.117 399.718Z" fill="url(#paint36_linear_1003_26918)"/>
<path d="M403.358 396.38C403.15 396.484 402.838 396.693 402.63 396.797C402.942 396.588 403.15 396.484 403.358 396.38Z" fill="url(#paint37_linear_1003_26918)"/>
<path d="M390.564 403.161C390.044 403.473 389.42 403.682 388.9 403.995C389.524 403.786 390.044 403.473 390.564 403.161Z" fill="url(#paint38_linear_1003_26918)"/>
<path d="M393.892 401.489C393.372 401.698 392.956 402.011 392.436 402.219C392.956 402.011 393.476 401.698 393.892 401.489Z" fill="url(#paint39_linear_1003_26918)"/>
<path d="M417.815 387.832C416.775 388.458 415.839 389.083 414.799 389.709C415.839 389.083 416.879 388.458 417.815 387.832Z" fill="url(#paint40_linear_1003_26918)"/>
<path d="M421.352 385.643C420.728 386.06 420.104 386.477 419.479 386.894C420 386.477 420.624 386.06 421.352 385.643Z" fill="url(#paint41_linear_1003_26918)"/>
<path d="M406.374 394.609C406.166 394.714 406.062 394.818 405.854 394.922C406.062 394.818 406.27 394.714 406.374 394.609Z" fill="url(#paint42_linear_1003_26918)"/>
<path d="M425.512 382.93C424.576 383.555 423.64 384.181 422.704 384.806C423.744 384.181 424.68 383.555 425.512 382.93Z" fill="url(#paint43_linear_1003_26918)"/>
<path d="M409.286 392.942C409.182 392.942 409.078 393.047 408.974 393.047C409.078 393.047 409.182 393.047 409.286 392.942Z" fill="url(#paint44_linear_1003_26918)"/>
<path d="M168.603 228.625C169.331 229.251 170.059 229.877 170.787 230.606C170.059 229.981 169.331 229.355 168.603 228.625Z" fill="url(#paint45_linear_1003_26918)"/>
<path d="M206.463 258.547C207.295 259.173 208.231 259.799 209.063 260.32C208.231 259.799 207.399 259.173 206.463 258.547Z" fill="url(#paint46_linear_1003_26918)"/>
<path d="M234.962 277.107C235.899 277.628 236.731 278.15 237.667 278.671C236.731 278.15 235.794 277.628 234.962 277.107Z" fill="url(#paint47_linear_1003_26918)"/>
<path d="M191.277 247.287C192.109 247.913 192.942 248.538 193.67 249.164C192.838 248.538 192.005 247.913 191.277 247.287Z" fill="url(#paint48_linear_1003_26918)"/>
<path d="M319.108 316.934C319.316 317.038 319.524 317.038 319.628 317.143C319.524 317.143 319.316 317.038 319.108 316.934Z" fill="url(#paint49_linear_1003_26918)"/>
<path d="M151.441 212.566C150.817 211.94 150.089 211.211 149.465 210.585C150.089 211.315 150.817 211.94 151.441 212.566Z" fill="url(#paint50_linear_1003_26918)"/>
<path d="M281.248 301.397C282.08 301.814 282.912 302.127 283.744 302.544C282.912 302.231 282.08 301.814 281.248 301.397Z" fill="url(#paint51_linear_1003_26918)"/>
<path d="M288.528 304.735C289.36 305.048 290.088 305.465 290.921 305.778C290.088 305.361 289.256 305.048 288.528 304.735Z" fill="url(#paint52_linear_1003_26918)"/>
<path d="M217.384 266.053C218.216 266.678 219.152 267.2 219.985 267.825C219.152 267.2 218.32 266.574 217.384 266.053Z" fill="url(#paint53_linear_1003_26918)"/>
<path d="M303.506 310.99C304.13 311.198 304.754 311.511 305.379 311.72C304.65 311.511 304.026 311.198 303.506 310.99Z" fill="url(#paint54_linear_1003_26918)"/>
<path d="M228.929 273.455C229.866 273.976 230.698 274.602 231.634 275.123C230.802 274.498 229.866 273.976 228.929 273.455Z" fill="url(#paint55_linear_1003_26918)"/>
<path d="M211.872 262.303C212.704 262.928 213.64 263.45 214.472 264.075C213.64 263.45 212.808 262.928 211.872 262.303Z" fill="url(#paint56_linear_1003_26918)"/>
<path d="M253.789 287.845C254.725 288.366 255.661 288.783 256.493 289.304C255.661 288.783 254.725 288.262 253.789 287.845Z" fill="url(#paint57_linear_1003_26918)"/>
<path d="M102.659 152.932C100.475 149.387 99.4348 147.51 99.4348 147.406C99.5388 147.614 100.579 149.595 102.659 152.932Z" fill="url(#paint58_linear_1003_26918)"/>
<path d="M223.105 269.705C223.937 270.226 224.873 270.851 225.809 271.373C224.873 270.851 224.041 270.33 223.105 269.705Z" fill="url(#paint59_linear_1003_26918)"/>
<path d="M172.867 232.376C173.595 233.002 174.427 233.627 175.155 234.357C174.323 233.627 173.595 233.002 172.867 232.376Z" fill="url(#paint60_linear_1003_26918)"/>
<path d="M177.236 236.028C177.964 236.653 178.796 237.279 179.524 237.905C178.796 237.383 177.964 236.758 177.236 236.028Z" fill="url(#paint61_linear_1003_26918)"/>
<path d="M115.453 206.938C172.451 338.933 352.288 420.466 352.288 420.466C359.465 417.547 366.225 414.732 372.674 411.812C366.225 414.732 359.465 417.651 352.288 420.466C352.288 420.57 172.451 339.037 115.453 206.938Z" fill="url(#paint62_linear_1003_26918)"/>
<path d="M473.15 341.957C473.046 336.014 472.734 329.862 472.318 323.502C472.11 319.958 471.798 316.413 471.485 312.868C469.405 312.868 467.429 312.868 465.453 312.763C457.964 312.451 449.435 311.825 439.97 310.887C429.881 309.948 418.855 308.489 406.998 306.612C391.396 304.11 374.546 300.669 356.76 296.082C356.552 299.626 356.24 302.963 355.928 305.986C354.472 319.749 352.288 327.777 352.288 327.881C419.376 352.487 473.15 341.957 473.15 341.957Z" fill="#870313"/>
<path d="M186.389 243.534C187.221 244.159 187.949 244.785 188.781 245.41C188.053 244.785 187.221 244.159 186.389 243.534Z" fill="url(#paint63_linear_1003_26918)"/>
<path d="M247.34 284.3C248.276 284.822 249.212 285.343 250.044 285.76C249.212 285.239 248.276 284.717 247.34 284.3Z" fill="url(#paint64_linear_1003_26918)"/>
<path d="M422.704 384.704C422.184 385.017 421.768 385.33 421.248 385.642C421.768 385.33 422.288 385.017 422.704 384.704Z" fill="url(#paint65_linear_1003_26918)"/>
<path d="M410.118 392.522C410.43 392.314 410.846 392.105 411.158 391.896C410.534 392.314 409.91 392.626 409.286 393.043C409.598 392.835 409.806 392.626 410.118 392.522Z" fill="url(#paint66_linear_1003_26918)"/>
<path d="M276.775 299.314C278.231 300.044 279.687 300.669 281.248 301.399C279.687 300.774 278.231 300.044 276.775 299.314Z" fill="url(#paint67_linear_1003_26918)"/>
<path d="M408.974 393.148C408.142 393.669 407.206 394.191 406.374 394.712C407.31 394.191 408.142 393.669 408.974 393.148Z" fill="url(#paint68_linear_1003_26918)"/>
<path d="M269.91 296.082C271.367 296.811 272.719 297.437 274.175 298.167C272.719 297.437 271.367 296.707 269.91 296.082Z" fill="url(#paint69_linear_1003_26918)"/>
<path d="M405.854 394.922C405.022 395.339 404.19 395.86 403.357 396.277C404.19 395.86 405.022 395.443 405.854 394.922Z" fill="url(#paint70_linear_1003_26918)"/>
<path d="M450.683 364.375C450.475 364.584 450.267 364.688 450.059 364.896C450.267 364.688 450.475 364.479 450.683 364.375Z" fill="url(#paint71_linear_1003_26918)"/>
<path d="M149.464 210.587C148.944 210.066 148.424 209.544 148.008 209.127C148.424 209.649 148.944 210.17 149.464 210.587Z" fill="url(#paint72_linear_1003_26918)"/>
<path d="M455.155 360.517C455.051 360.621 454.843 360.726 454.739 360.83C454.947 360.726 455.051 360.621 455.155 360.517Z" fill="url(#paint73_linear_1003_26918)"/>
<path d="M457.132 358.743C457.028 358.847 456.82 358.952 456.716 359.16C456.82 359.056 457.028 358.847 457.132 358.743Z" fill="url(#paint74_linear_1003_26918)"/>
<path d="M426.968 381.996C426.552 382.308 426.032 382.621 425.616 382.934C426.032 382.621 426.448 382.308 426.968 381.996Z" fill="url(#paint75_linear_1003_26918)"/>
<path d="M99.4348 147.406C101.723 168.258 107.34 188.068 115.453 206.939C107.34 188.172 101.723 168.258 99.4348 147.406Z" fill="url(#paint76_linear_1003_26918)"/>
<path d="M460.772 355.301C460.668 355.405 460.564 355.509 460.46 355.509C460.668 355.509 460.772 355.405 460.772 355.301Z" fill="url(#paint77_linear_1003_26918)"/>
<path d="M459.108 356.973C459.004 357.077 459.004 357.077 458.9 357.181C458.9 357.181 459.004 357.077 459.108 356.973Z" fill="url(#paint78_linear_1003_26918)"/>
<path d="M395.973 400.345C395.245 400.658 394.621 401.075 393.893 401.387C394.621 401.075 395.349 400.762 395.973 400.345Z" fill="url(#paint79_linear_1003_26918)"/>
<path d="M436.641 375.214C436.329 375.423 435.913 375.736 435.497 376.048C435.913 375.736 436.329 375.527 436.641 375.214Z" fill="url(#paint80_linear_1003_26918)"/>
<path d="M448.083 366.561C447.875 366.769 447.563 366.978 447.355 367.186C447.563 366.873 447.771 366.665 448.083 366.561Z" fill="url(#paint81_linear_1003_26918)"/>
<path d="M429.984 379.908C429.568 380.221 429.152 380.43 428.736 380.742C429.152 380.534 429.568 380.221 429.984 379.908Z" fill="url(#paint82_linear_1003_26918)"/>
<path d="M433.833 377.302C433.417 377.615 433.105 377.823 432.689 378.136C433.001 377.823 433.417 377.51 433.833 377.302Z" fill="url(#paint83_linear_1003_26918)"/>
<path d="M442.674 370.731C442.362 370.939 442.05 371.252 441.738 371.461C442.05 371.252 442.362 371.044 442.674 370.731Z" fill="url(#paint84_linear_1003_26918)"/>
<path d="M440.074 372.716C439.762 372.924 439.45 373.237 439.138 373.446C439.346 373.237 439.762 373.029 440.074 372.716Z" fill="url(#paint85_linear_1003_26918)"/>
<path d="M129.806 189.424C130.118 189.841 130.43 190.154 130.846 190.571C130.534 190.154 130.222 189.841 129.806 189.424Z" fill="url(#paint86_linear_1003_26918)"/>
<path d="M124.814 183.479C125.126 183.792 125.334 184.209 125.646 184.522C125.334 184.105 125.126 183.792 124.814 183.479Z" fill="url(#paint87_linear_1003_26918)"/>
<path d="M135.423 195.78C135.839 196.197 136.151 196.614 136.567 197.031C136.151 196.614 135.735 196.197 135.423 195.78Z" fill="url(#paint88_linear_1003_26918)"/>
<path d="M188.781 245.411C189.613 246.036 190.341 246.662 191.173 247.287C190.445 246.662 189.613 246.036 188.781 245.411Z" fill="url(#paint89_linear_1003_26918)"/>
<path d="M132.511 192.548C132.823 192.965 133.239 193.382 133.551 193.799C133.239 193.382 132.927 192.965 132.511 192.548Z" fill="url(#paint90_linear_1003_26918)"/>
<path d="M127.31 186.398C127.622 186.711 127.934 187.128 128.246 187.441C127.83 187.128 127.622 186.711 127.31 186.398Z" fill="url(#paint91_linear_1003_26918)"/>
<path d="M118.157 175.035C118.365 175.347 118.573 175.556 118.781 175.869C118.573 175.66 118.365 175.347 118.157 175.035Z" fill="url(#paint92_linear_1003_26918)"/>
<path d="M203.863 256.671C204.799 257.296 205.631 257.922 206.567 258.548C205.631 257.922 204.695 257.296 203.863 256.671Z" fill="url(#paint93_linear_1003_26918)"/>
<path d="M122.421 180.56C122.629 180.872 122.941 181.185 123.149 181.498C122.941 181.185 122.733 180.872 122.421 180.56Z" fill="url(#paint94_linear_1003_26918)"/>
<path d="M184.101 241.763C184.829 242.388 185.661 243.014 186.389 243.639C185.661 242.91 184.933 242.284 184.101 241.763Z" fill="url(#paint95_linear_1003_26918)"/>
<path d="M155.081 216.114C155.601 216.636 156.225 217.157 156.745 217.678C156.121 217.157 155.601 216.636 155.081 216.114Z" fill="url(#paint96_linear_1003_26918)"/>
<path d="M175.156 234.254C175.884 234.88 176.508 235.401 177.236 236.027C176.508 235.506 175.78 234.88 175.156 234.254Z" fill="url(#paint97_linear_1003_26918)"/>
<path d="M158.826 219.658C159.45 220.179 159.97 220.7 160.594 221.326C159.97 220.805 159.346 220.283 158.826 219.658Z" fill="url(#paint98_linear_1003_26918)"/>
<path d="M170.891 230.605C171.515 231.231 172.243 231.752 172.867 232.377C172.139 231.752 171.515 231.231 170.891 230.605Z" fill="url(#paint99_linear_1003_26918)"/>
<path d="M138.335 199.012C138.751 199.429 139.167 199.95 139.583 200.367C139.167 199.846 138.751 199.429 138.335 199.012Z" fill="url(#paint100_linear_1003_26918)"/>
<path d="M373.194 411.604C372.986 411.708 372.882 411.708 372.674 411.813C372.778 411.708 372.986 411.708 373.194 411.604Z" fill="url(#paint101_linear_1003_26918)"/>
<path d="M377.355 409.625C377.043 409.729 376.73 409.937 376.418 410.042C376.73 409.937 377.043 409.833 377.355 409.625Z" fill="url(#paint102_linear_1003_26918)"/>
<path d="M243.803 282.216C244.947 282.842 246.196 283.572 247.34 284.197C246.196 283.572 244.947 282.946 243.803 282.216Z" fill="url(#paint103_linear_1003_26918)"/>
<path d="M103.491 154.286L103.601 154.395C103.601 154.395 103.601 154.286 103.491 154.286Z" fill="url(#paint104_linear_1003_26918)"/>
<path d="M116.181 172.429C116.389 172.637 116.597 172.95 116.805 173.159C116.597 172.95 116.389 172.741 116.181 172.429Z" fill="url(#paint105_linear_1003_26918)"/>
<path d="M104.531 155.747C104.531 155.851 104.635 155.851 104.635 155.956C104.531 155.956 104.531 155.851 104.531 155.747Z" fill="url(#paint106_linear_1003_26918)"/>
<path d="M256.597 289.198C257.845 289.928 259.197 290.554 260.445 291.283C259.197 290.658 257.845 289.928 256.597 289.198Z" fill="url(#paint107_linear_1003_26918)"/>
<path d="M388.9 403.993C388.276 404.305 387.756 404.618 387.132 404.827C387.756 404.618 388.38 404.305 388.9 403.993Z" fill="url(#paint108_linear_1003_26918)"/>
<path d="M250.148 285.761C251.396 286.387 252.644 287.117 253.892 287.742C252.54 287.117 251.396 286.491 250.148 285.761Z" fill="url(#paint109_linear_1003_26918)"/>
<path d="M385.259 405.87C384.739 406.078 384.219 406.391 383.699 406.599C384.219 406.391 384.739 406.182 385.259 405.87Z" fill="url(#paint110_linear_1003_26918)"/>
<path d="M112.54 167.633C112.644 167.841 112.852 168.05 112.956 168.258C112.852 168.05 112.748 167.841 112.54 167.633Z" fill="url(#paint111_linear_1003_26918)"/>
<path d="M214.472 264.073C215.408 264.699 216.448 265.429 217.384 266.054C216.448 265.429 215.512 264.699 214.472 264.073Z" fill="url(#paint112_linear_1003_26918)"/>
<path d="M220.089 267.725C221.129 268.35 222.065 269.08 223.105 269.706C222.065 269.08 221.129 268.454 220.089 267.725Z" fill="url(#paint113_linear_1003_26918)"/>
<path d="M105.572 157.413C105.676 157.517 105.676 157.622 105.78 157.726C105.676 157.622 105.572 157.517 105.572 157.413Z" fill="url(#paint114_linear_1003_26918)"/>
<path d="M231.634 275.02C232.778 275.645 233.818 276.375 234.962 277.001C233.818 276.375 232.778 275.749 231.634 275.02Z" fill="url(#paint115_linear_1003_26918)"/>
<path d="M106.716 159.184C106.82 159.288 106.82 159.393 106.924 159.497C106.924 159.393 106.82 159.288 106.716 159.184Z" fill="url(#paint116_linear_1003_26918)"/>
<path d="M225.809 271.476C226.849 272.102 227.89 272.831 228.93 273.457C227.89 272.727 226.849 272.102 225.809 271.476Z" fill="url(#paint117_linear_1003_26918)"/>
<path d="M108.068 161.169C108.172 161.273 108.276 161.482 108.38 161.586C108.172 161.377 108.068 161.273 108.068 161.169Z" fill="url(#paint118_linear_1003_26918)"/>
<path d="M352.288 327.88C340.95 324.544 330.133 320.999 319.628 317.245C319.42 317.141 319.212 317.141 319.108 317.037C316.924 316.203 314.739 315.369 312.555 314.639C312.139 314.43 311.619 314.326 311.203 314.118C309.227 313.388 307.251 312.554 305.274 311.824C304.65 311.615 304.026 311.303 303.402 311.094C301.634 310.364 299.762 309.634 297.993 308.905C297.265 308.592 296.537 308.279 295.809 307.966C294.145 307.236 292.481 306.507 290.817 305.777C289.985 305.464 289.256 305.047 288.424 304.734C286.864 304.004 285.304 303.274 283.744 302.649C282.912 302.232 282.08 301.919 281.248 301.502C279.791 300.772 278.231 300.147 276.775 299.417C275.943 299 275.007 298.583 274.175 298.166C272.719 297.436 271.366 296.81 269.91 296.08C268.974 295.663 268.142 295.246 267.206 294.725C265.854 293.995 264.502 293.37 263.15 292.64C262.213 292.223 261.277 291.701 260.445 291.284C259.093 290.659 257.845 289.929 256.597 289.199C255.661 288.678 254.725 288.261 253.892 287.739C252.644 287.114 251.396 286.384 250.148 285.758C249.212 285.237 248.276 284.716 247.444 284.299C246.196 283.673 245.051 282.943 243.907 282.318C242.971 281.796 242.139 281.275 241.203 280.754C240.059 280.128 238.915 279.398 237.771 278.773C236.834 278.252 236.002 277.73 235.066 277.209C233.922 276.583 232.882 275.854 231.738 275.228C230.802 274.707 229.97 274.185 229.034 273.56C227.993 272.934 226.953 272.204 225.913 271.579C224.977 271.057 224.145 270.432 223.209 269.911C222.169 269.285 221.129 268.555 220.193 267.93C219.36 267.304 218.424 266.783 217.592 266.157C216.656 265.532 215.616 264.802 214.68 264.176C213.848 263.551 212.912 263.029 212.08 262.404C211.144 261.778 210.207 261.153 209.271 260.423C208.439 259.797 207.503 259.172 206.671 258.65C205.735 258.025 204.903 257.399 203.967 256.774C203.135 256.148 202.303 255.522 201.47 254.897C200.638 254.271 199.702 253.646 198.87 253.02C198.038 252.395 197.206 251.769 196.374 251.143C195.542 250.518 194.71 249.892 193.878 249.267C193.045 248.641 192.213 248.016 191.485 247.39C190.653 246.764 189.925 246.139 189.093 245.513C188.261 244.888 187.533 244.262 186.701 243.637C185.973 243.011 185.141 242.385 184.413 241.76C183.58 241.134 182.852 240.509 182.02 239.883C181.292 239.258 180.564 238.632 179.836 238.111C179.108 237.485 178.276 236.86 177.548 236.234C176.82 235.608 176.092 235.087 175.467 234.462C174.739 233.836 173.907 233.21 173.179 232.481C172.451 231.855 171.827 231.334 171.203 230.708C170.475 230.083 169.747 229.457 169.019 228.727C168.395 228.102 167.771 227.58 167.043 227.059C166.314 226.433 165.586 225.704 164.858 225.078C164.234 224.557 163.61 223.931 162.986 223.41C162.258 222.784 161.53 222.054 160.802 221.429C160.178 220.907 159.658 220.386 159.034 219.761C158.306 219.135 157.681 218.405 156.953 217.78C156.433 217.258 155.809 216.737 155.289 216.216C154.561 215.59 153.937 214.86 153.209 214.235C152.689 213.713 152.169 213.192 151.649 212.671C151.025 212.045 150.297 211.315 149.673 210.69C149.152 210.168 148.632 209.647 148.216 209.23C147.592 208.605 146.864 207.875 146.24 207.249C145.72 206.728 145.304 206.311 144.888 205.789C144.264 205.164 143.64 204.434 143.016 203.809C142.6 203.287 142.184 202.87 141.664 202.453C141.04 201.828 140.415 201.098 139.791 200.472C139.375 200.055 138.959 199.534 138.543 199.117C137.919 198.491 137.295 197.761 136.775 197.136C136.359 196.719 136.047 196.302 135.631 195.885C135.007 195.259 134.487 194.529 133.863 193.904C133.447 193.487 133.135 193.07 132.823 192.652C132.199 192.027 131.678 191.297 131.158 190.671C130.846 190.254 130.534 189.942 130.118 189.525C129.598 188.899 128.974 188.273 128.454 187.544C128.142 187.127 127.83 186.814 127.518 186.501C126.998 185.875 126.478 185.25 125.854 184.52C125.542 184.207 125.334 183.79 125.022 183.477C124.502 182.852 123.982 182.226 123.462 181.601C123.149 181.288 122.941 180.975 122.733 180.662C122.213 180.037 121.693 179.411 121.277 178.786C121.069 178.473 120.757 178.16 120.549 177.847C120.029 177.222 119.613 176.596 119.093 175.971C118.885 175.658 118.677 175.449 118.469 175.136C117.949 174.511 117.533 173.885 117.117 173.26C116.909 172.947 116.701 172.738 116.493 172.53C116.077 171.904 115.557 171.279 115.141 170.757C114.933 170.549 114.829 170.34 114.621 170.028C114.204 169.402 113.788 168.881 113.372 168.255C113.268 168.047 113.06 167.838 112.956 167.63C112.54 167.004 112.124 166.483 111.708 165.857C111.604 165.649 111.396 165.44 111.292 165.336C110.876 164.815 110.46 164.189 110.148 163.668C110.044 163.459 109.94 163.355 109.836 163.146C109.42 162.625 109.108 162.104 108.692 161.582C108.588 161.478 108.484 161.27 108.38 161.165C108.068 160.644 107.652 160.123 107.34 159.601C107.236 159.497 107.132 159.393 107.132 159.289C106.82 158.767 106.404 158.246 106.092 157.829C105.988 157.725 105.988 157.62 105.884 157.516C105.571 156.995 105.259 156.578 104.947 156.057C104.947 155.952 104.843 155.952 104.843 155.848C104.531 155.327 104.219 154.91 104.011 154.493L103.907 154.388C103.595 153.971 103.387 153.554 103.075 153.137C103.075 153.137 103.075 153.137 103.075 153.033C100.995 149.697 99.9548 147.82 99.8508 147.611C102.139 168.464 107.756 188.378 115.869 207.145C172.867 339.14 352.704 420.673 352.704 420.673C359.881 417.754 366.641 414.939 373.09 412.02C373.298 411.915 373.402 411.915 373.61 411.811C374.754 411.29 375.794 410.768 376.939 410.351C377.251 410.247 377.563 410.039 377.875 409.934C378.811 409.517 379.643 409.1 380.579 408.683C380.995 408.475 381.411 408.266 381.931 408.058C382.659 407.641 383.491 407.328 384.219 406.911C384.739 406.702 385.259 406.389 385.78 406.181C386.404 405.868 387.132 405.555 387.756 405.243C388.38 404.93 388.9 404.617 389.524 404.408C390.044 404.096 390.668 403.887 391.188 403.574C391.812 403.262 392.436 402.949 393.06 402.636C393.58 402.428 393.996 402.115 394.517 401.906C395.245 401.593 395.869 401.176 396.597 400.864C397.013 400.655 397.429 400.447 397.741 400.238C398.469 399.821 399.197 399.404 399.925 399.091C400.237 398.883 400.549 398.778 400.861 398.57C401.693 398.153 402.421 397.736 403.149 397.319C403.358 397.214 403.67 397.006 403.878 396.902C404.71 396.485 405.542 395.963 406.374 395.546C406.582 395.442 406.686 395.338 406.894 395.233C407.83 394.712 408.662 394.191 409.494 393.669C409.598 393.669 409.702 393.565 409.806 393.565C410.43 393.148 411.054 392.835 411.678 392.418C412.407 392.001 413.031 391.584 413.759 391.167C414.279 390.854 414.799 390.542 415.319 390.229C416.359 389.603 417.399 388.978 418.335 388.352C418.855 388.039 419.375 387.727 419.895 387.414C420.52 386.997 421.144 386.58 421.768 386.163C422.288 385.85 422.704 385.537 423.224 385.224C424.16 384.599 425.096 383.973 426.032 383.348C426.448 383.035 426.968 382.722 427.384 382.409C428.008 381.992 428.632 381.575 429.257 381.158C429.673 380.845 430.089 380.637 430.505 380.324C431.441 379.698 432.273 379.073 433.105 378.552C433.521 378.239 433.937 378.03 434.249 377.717C434.873 377.3 435.393 376.883 436.017 376.466C436.433 376.153 436.745 375.945 437.161 375.632C437.993 375.007 438.826 374.485 439.554 373.86C439.866 373.651 440.178 373.338 440.49 373.13C441.01 372.713 441.634 372.296 442.154 371.879C442.466 371.67 442.778 371.357 443.09 371.149C443.818 370.523 444.546 370.002 445.274 369.376C445.586 369.168 445.794 368.959 446.106 368.751C446.626 368.334 447.147 367.917 447.771 367.5C447.979 367.291 448.291 367.083 448.499 366.874C449.227 366.353 449.851 365.727 450.579 365.206C450.787 364.997 450.995 364.893 451.203 364.685C451.723 364.268 452.243 363.851 452.763 363.329C452.971 363.121 453.179 363.016 453.387 362.808C454.011 362.287 454.635 361.661 455.259 361.14C455.363 361.035 455.571 360.931 455.676 360.827C456.196 360.41 456.716 359.889 457.236 359.472C457.34 359.367 457.548 359.159 457.652 359.055C458.276 358.533 458.796 358.012 459.42 357.491C459.524 357.386 459.524 357.386 459.628 357.282C460.148 356.761 460.668 356.344 461.084 355.927C461.188 355.822 461.292 355.718 461.396 355.718C461.916 355.197 462.436 354.676 462.956 354.258C463.476 353.737 463.996 353.32 464.413 352.799L464.517 352.695C470.965 346.335 473.67 342.373 473.67 342.373C473.67 342.373 419.375 352.486 352.288 327.88Z" fill="url(#paint119_linear_1003_26918)"/>
<path d="M352.288 327.88C340.95 324.544 330.133 320.999 319.628 317.245C319.42 317.141 319.212 317.141 319.108 317.037C316.924 316.203 314.739 315.369 312.555 314.639C312.139 314.43 311.619 314.326 311.203 314.118C309.227 313.388 307.251 312.554 305.274 311.824C304.65 311.615 304.026 311.303 303.402 311.094C301.634 310.364 299.762 309.634 297.993 308.905C297.265 308.592 296.537 308.279 295.809 307.966C294.145 307.236 292.481 306.507 290.817 305.777C289.985 305.464 289.256 305.047 288.424 304.734C286.864 304.004 285.304 303.274 283.744 302.649C282.912 302.232 282.08 301.919 281.248 301.502C279.791 300.772 278.231 300.147 276.775 299.417C275.943 299 275.007 298.583 274.175 298.166C272.719 297.436 271.366 296.81 269.91 296.08C268.974 295.663 268.142 295.246 267.206 294.725C265.854 293.995 264.502 293.37 263.15 292.64C262.213 292.223 261.277 291.701 260.445 291.284C259.093 290.659 257.845 289.929 256.597 289.199C255.661 288.678 254.725 288.261 253.892 287.739C252.644 287.114 251.396 286.384 250.148 285.758C249.212 285.237 248.276 284.716 247.444 284.299C246.196 283.673 245.051 282.943 243.907 282.318C242.971 281.796 242.139 281.275 241.203 280.754C240.059 280.128 238.915 279.398 237.771 278.773C236.834 278.252 236.002 277.73 235.066 277.209C233.922 276.583 232.882 275.854 231.738 275.228C230.802 274.707 229.97 274.185 229.034 273.56C227.993 272.934 226.953 272.204 225.913 271.579C224.977 271.057 224.145 270.432 223.209 269.911C222.169 269.285 221.129 268.555 220.193 267.93C219.36 267.304 218.424 266.783 217.592 266.157C216.656 265.532 215.616 264.802 214.68 264.176C213.848 263.551 212.912 263.029 212.08 262.404C211.144 261.778 210.207 261.153 209.271 260.423C208.439 259.797 207.503 259.172 206.671 258.65C205.735 258.025 204.903 257.399 203.967 256.774C203.135 256.148 202.303 255.522 201.47 254.897C200.638 254.271 199.702 253.646 198.87 253.02C198.038 252.395 197.206 251.769 196.374 251.143C195.542 250.518 194.71 249.892 193.878 249.267C193.045 248.641 192.213 248.016 191.485 247.39C190.653 246.764 189.925 246.139 189.093 245.513C188.261 244.888 187.533 244.262 186.701 243.637C185.973 243.011 185.141 242.385 184.413 241.76C183.58 241.134 182.852 240.509 182.02 239.883C181.292 239.258 180.564 238.632 179.836 238.111C179.108 237.485 178.276 236.86 177.548 236.234C176.82 235.608 176.092 235.087 175.467 234.462C174.739 233.836 173.907 233.21 173.179 232.481C172.451 231.855 171.827 231.334 171.203 230.708C170.475 230.083 169.747 229.457 169.019 228.727C168.395 228.102 167.771 227.58 167.043 227.059C166.314 226.433 165.586 225.704 164.858 225.078C164.234 224.557 163.61 223.931 162.986 223.41C162.258 222.784 161.53 222.054 160.802 221.429C160.178 220.907 159.658 220.386 159.034 219.761C158.306 219.135 157.681 218.405 156.953 217.78C156.433 217.258 155.809 216.737 155.289 216.216C154.561 215.59 153.937 214.86 153.209 214.235C152.689 213.713 152.169 213.192 151.649 212.671C151.025 212.045 150.297 211.315 149.673 210.69C149.152 210.168 148.632 209.647 148.216 209.23C147.592 208.605 146.864 207.875 146.24 207.249C145.72 206.728 145.304 206.311 144.888 205.789C144.264 205.164 143.64 204.434 143.016 203.809C142.6 203.287 142.184 202.87 141.664 202.453C141.04 201.828 140.415 201.098 139.791 200.472C139.375 200.055 138.959 199.534 138.543 199.117C137.919 198.491 137.295 197.761 136.775 197.136C136.359 196.719 136.047 196.302 135.631 195.885C135.007 195.259 134.487 194.529 133.863 193.904C133.447 193.487 133.135 193.07 132.823 192.652C132.199 192.027 131.678 191.297 131.158 190.671C130.846 190.254 130.534 189.942 130.118 189.525C129.598 188.899 128.974 188.273 128.454 187.544C128.142 187.127 127.83 186.814 127.518 186.501C126.998 185.875 126.478 185.25 125.854 184.52C125.542 184.207 125.334 183.79 125.022 183.477C124.502 182.852 123.982 182.226 123.462 181.601C123.149 181.288 122.941 180.975 122.733 180.662C122.213 180.037 121.693 179.411 121.277 178.786C121.069 178.473 120.757 178.16 120.549 177.847C120.029 177.222 119.613 176.596 119.093 175.971C118.885 175.658 118.677 175.449 118.469 175.136C117.949 174.511 117.533 173.885 117.117 173.26C116.909 172.947 116.701 172.738 116.493 172.53C116.077 171.904 115.557 171.279 115.141 170.757C114.933 170.549 114.829 170.34 114.621 170.028C114.204 169.402 113.788 168.881 113.372 168.255C113.268 168.047 113.06 167.838 112.956 167.63C112.54 167.004 112.124 166.483 111.708 165.857C111.604 165.649 111.396 165.44 111.292 165.336C110.876 164.815 110.46 164.189 110.148 163.668C110.044 163.459 109.94 163.355 109.836 163.146C109.42 162.625 109.108 162.104 108.692 161.582C108.588 161.478 108.484 161.27 108.38 161.165C108.068 160.644 107.652 160.123 107.34 159.601C107.236 159.497 107.132 159.393 107.132 159.289C106.82 158.767 106.404 158.246 106.092 157.829C105.988 157.725 105.988 157.62 105.884 157.516C105.571 156.995 105.259 156.578 104.947 156.057C104.947 155.952 104.843 155.952 104.843 155.848C104.531 155.327 104.219 154.91 104.011 154.493L103.907 154.388C103.595 153.971 103.387 153.554 103.075 153.137C103.075 153.137 103.075 153.137 103.075 153.033C100.995 149.697 99.9548 147.82 99.8508 147.611C102.139 168.464 107.756 188.378 115.869 207.145C172.867 339.14 352.704 420.673 352.704 420.673C359.881 417.754 366.641 414.939 373.09 412.02C373.298 411.915 373.402 411.915 373.61 411.811C374.754 411.29 375.794 410.768 376.939 410.351C377.251 410.247 377.563 410.039 377.875 409.934C378.811 409.517 379.643 409.1 380.579 408.683C380.995 408.475 381.411 408.266 381.931 408.058C382.659 407.641 383.491 407.328 384.219 406.911C384.739 406.702 385.259 406.389 385.78 406.181C386.404 405.868 387.132 405.555 387.756 405.243C388.38 404.93 388.9 404.617 389.524 404.408C390.044 404.096 390.668 403.887 391.188 403.574C391.812 403.262 392.436 402.949 393.06 402.636C393.58 402.428 393.996 402.115 394.517 401.906C395.245 401.593 395.869 401.176 396.597 400.864C397.013 400.655 397.429 400.447 397.741 400.238C398.469 399.821 399.197 399.404 399.925 399.091C400.237 398.883 400.549 398.778 400.861 398.57C401.693 398.153 402.421 397.736 403.149 397.319C403.358 397.214 403.67 397.006 403.878 396.902C404.71 396.485 405.542 395.963 406.374 395.546C406.582 395.442 406.686 395.338 406.894 395.233C407.83 394.712 408.662 394.191 409.494 393.669C409.598 393.669 409.702 393.565 409.806 393.565C410.43 393.148 411.054 392.835 411.678 392.418C412.407 392.001 413.031 391.584 413.759 391.167C414.279 390.854 414.799 390.542 415.319 390.229C416.359 389.603 417.399 388.978 418.335 388.352C418.855 388.039 419.375 387.727 419.895 387.414C420.52 386.997 421.144 386.58 421.768 386.163C422.288 385.85 422.704 385.537 423.224 385.224C424.16 384.599 425.096 383.973 426.032 383.348C426.448 383.035 426.968 382.722 427.384 382.409C428.008 381.992 428.632 381.575 429.257 381.158C429.673 380.845 430.089 380.637 430.505 380.324C431.441 379.698 432.273 379.073 433.105 378.552C433.521 378.239 433.937 378.03 434.249 377.717C434.873 377.3 435.393 376.883 436.017 376.466C436.433 376.153 436.745 375.945 437.161 375.632C437.993 375.007 438.826 374.485 439.554 373.86C439.866 373.651 440.178 373.338 440.49 373.13C441.01 372.713 441.634 372.296 442.154 371.879C442.466 371.67 442.778 371.357 443.09 371.149C443.818 370.523 444.546 370.002 445.274 369.376C445.586 369.168 445.794 368.959 446.106 368.751C446.626 368.334 447.147 367.917 447.771 367.5C447.979 367.291 448.291 367.083 448.499 366.874C449.227 366.353 449.851 365.727 450.579 365.206C450.787 364.997 450.995 364.893 451.203 364.685C451.723 364.268 452.243 363.851 452.763 363.329C452.971 363.121 453.179 363.016 453.387 362.808C454.011 362.287 454.635 361.661 455.259 361.14C455.363 361.035 455.571 360.931 455.676 360.827C456.196 360.41 456.716 359.889 457.236 359.472C457.34 359.367 457.548 359.159 457.652 359.055C458.276 358.533 458.796 358.012 459.42 357.491C459.524 357.386 459.524 357.386 459.628 357.282C460.148 356.761 460.668 356.344 461.084 355.927C461.188 355.822 461.292 355.718 461.396 355.718C461.916 355.197 462.436 354.676 462.956 354.258C463.476 353.737 463.996 353.32 464.413 352.799L464.517 352.695C470.965 346.335 473.67 342.373 473.67 342.373C473.67 342.373 419.375 352.486 352.288 327.88Z" fill="url(#paint120_linear_1003_26918)"/>
<path d="M586.626 219.134C574.249 243.219 554.695 268.242 524.947 293.056C521.619 294.933 518.915 297.748 515.69 299.833C526.299 280.128 538.261 241.238 524.115 177.221C524.115 177.221 500.296 59.9265 358.944 44.6C361.753 43.7659 553.759 -15.6634 587.666 181.287C589.747 193.903 589.435 206.727 586.626 219.134Z" fill="url(#paint121_linear_1003_26918)"/>
<path d="M515.586 299.729C502.377 307.966 487.191 312.449 471.589 312.762C469.509 312.762 467.533 312.762 465.557 312.658C458.068 312.345 449.539 311.719 440.074 310.781C429.985 309.843 418.959 308.383 407.102 306.506C391.5 304.004 374.65 300.563 356.864 295.976C280.624 276.062 188.573 233.523 119.717 143.44C111.812 133.119 107.548 120.92 107.028 108.617C124.086 87.5561 132.303 84.4282 132.303 84.4282C132.303 84.4282 216.344 185.667 345.215 205.893C354.784 207.353 364.665 208.396 374.858 209.021C389.836 209.855 405.334 209.438 421.248 207.666C429.985 206.727 438.93 205.268 447.979 203.391C472.422 198.387 497.904 189.837 524.115 177.117C538.157 241.238 526.196 280.024 515.586 299.729Z" fill="url(#paint122_linear_1003_26918)"/>
<path d="M410.118 392.526C394.413 401.701 375.274 411.397 352.288 420.572C352.288 420.572 117.429 314.121 99.4348 147.406C100.059 150.012 140.624 310.576 410.118 392.526Z" fill="url(#paint123_linear_1003_26918)"/>
<path d="M16.4332 555.59C12.0647 553.713 8.73634 551.107 6.13604 547.562C3.63975 544.121 2.2876 539.951 2.2876 535.259H18.9295C19.1375 538.491 20.2817 541.097 22.2579 543.078C24.3381 544.955 27.0424 545.998 30.5788 545.998C34.2192 545.998 37.0276 545.059 39.1078 543.287C41.188 541.514 42.2282 539.116 42.2282 536.197C42.2282 533.903 41.5001 532.027 40.1479 530.567C38.6918 529.107 37.0276 527.96 34.8433 527.022C32.7631 526.188 29.8507 525.25 26.1063 524.207C21.1138 522.747 16.9533 521.288 13.8329 519.828C10.7126 518.368 8.00825 516.179 5.71999 513.259C3.43173 510.34 2.39161 506.378 2.39161 501.582C2.39161 496.995 3.53574 493.033 5.824 489.592C8.11226 486.151 11.3366 483.545 15.4971 481.772C19.6576 480 24.3381 479.062 29.6427 479.062C37.6516 479.062 44.1004 481.043 49.0929 484.9C54.0855 488.758 56.7898 494.18 57.3099 501.165H40.3559C40.2519 498.246 39.1078 495.952 37.0276 494.18C34.9473 492.407 32.139 491.573 28.7066 491.573C25.6903 491.573 23.298 492.407 21.4258 493.971C19.6576 495.535 18.7215 497.933 18.7215 501.061C18.7215 503.146 19.4496 504.814 20.8017 506.274C22.1539 507.629 23.8181 508.776 25.8983 509.61C27.9785 510.444 30.7869 511.487 34.5313 512.53C39.5239 513.989 43.6843 515.449 46.8047 517.013C50.0291 518.473 52.7334 520.766 55.0216 523.686C57.3099 526.605 58.454 530.567 58.454 535.363C58.454 539.533 57.4139 543.391 55.2297 546.936C53.0454 550.481 49.925 553.296 45.7646 555.381C41.6041 557.467 36.7155 558.509 30.9949 558.509C25.5863 558.405 20.6977 557.467 16.4332 555.59Z" fill="#0A0A0A"/>
<path d="M175.155 480.104L153.521 557.675H135.215L120.653 502.52L105.467 557.675L87.3693 557.779L66.5669 480.104H83.2088L96.8344 540.263L112.54 480.104H129.806L144.68 539.95L158.409 480.104H175.155Z" fill="#0A0A0A"/>
<path d="M200.742 480.104V557.675H185.245V480.104H200.742Z" fill="#0A0A0A"/>
<path d="M269.494 515.762C267.518 519.411 264.502 522.33 260.341 524.52C256.181 526.709 250.876 527.856 244.531 527.856H231.53V557.571H216.032V480H244.531C250.564 480 255.661 481.043 259.821 483.128C263.981 485.213 267.206 488.028 269.286 491.677C271.366 495.327 272.406 499.393 272.406 503.98C272.406 508.255 271.47 512.113 269.494 515.762ZM253.268 512.53C255.348 510.444 256.389 507.629 256.389 504.085C256.389 500.435 255.348 497.516 253.268 495.431C251.188 493.346 248.068 492.407 243.699 492.407H231.426V515.658H243.699C248.068 515.658 251.188 514.615 253.268 512.53Z" fill="#0A0A0A"/>
<path d="M298.929 492.2V512.323H324.932V524.313H298.929V545.27H328.261V557.573H283.432V479.897H328.261V492.096H298.929V492.2Z" fill="#0A0A0A"/>
<path d="M388.796 547.981H414.799V557.677H376.106V480.523H388.692V547.981H388.796Z" fill="#0A0A0A"/>
<path d="M440.802 553.402C434.769 550.066 429.984 545.374 426.552 539.327C423.016 533.279 421.247 526.502 421.247 518.995C421.247 511.489 423.016 504.712 426.552 498.664C430.088 492.617 434.873 488.03 440.802 484.589C446.834 481.253 453.387 479.584 460.564 479.584C467.845 479.584 474.397 481.253 480.43 484.589C486.463 487.925 491.143 492.617 494.68 498.664C498.112 504.712 499.88 511.489 499.88 518.995C499.88 526.502 498.112 533.384 494.68 539.327C491.247 545.374 486.463 550.066 480.43 553.402C474.397 556.738 467.741 558.406 460.564 558.406C453.387 558.406 446.73 556.738 440.802 553.402ZM474.189 543.497C478.142 541.203 481.262 537.867 483.55 533.592C485.839 529.317 486.879 524.417 486.879 518.891C486.879 513.365 485.735 508.465 483.55 504.19C481.262 500.02 478.142 496.683 474.189 494.39C470.237 492.096 465.66 490.949 460.564 490.949C455.467 490.949 450.891 492.096 446.938 494.39C442.986 496.683 439.865 499.916 437.577 504.19C435.289 508.361 434.249 513.261 434.249 518.891C434.249 524.417 435.393 529.317 437.577 533.592C439.865 537.867 442.986 541.099 446.938 543.497C450.891 545.791 455.467 547.042 460.564 547.042C465.66 547.042 470.133 545.791 474.189 543.497Z" fill="#0A0A0A"/>
<path d="M519.539 480.417L542.213 544.538L565.096 480.417H578.513L549.598 557.571H534.932L505.913 480.417H519.539Z" fill="#0A0A0A"/>
<path d="M601.812 490.218V513.677H628.439V523.477H601.812V547.77H631.767V557.675H589.227V480.417H631.767V490.322H601.812V490.218Z" fill="#0A0A0A"/>
<path d="M687.206 557.677L669.524 526.816H659.851V557.677H647.265V480.523H673.892C679.821 480.523 684.813 481.566 688.87 483.651C692.926 485.737 696.047 488.552 698.023 491.992C700.103 495.433 701.039 499.395 701.039 503.67C701.039 508.674 699.583 513.262 696.671 517.432C693.758 521.498 689.286 524.313 683.253 525.773L702.287 557.782H687.206V557.677ZM659.851 516.807H673.788C678.469 516.807 682.109 515.66 684.501 513.262C686.894 510.864 688.142 507.632 688.142 503.565C688.142 499.395 686.998 496.163 684.605 493.869C682.213 491.575 678.677 490.324 673.892 490.324H659.955V516.807H659.851Z" fill="#0A0A0A"/>
</g>
<defs>
<linearGradient id="paint0_linear_1003_26918" x1="99.4259" y1="150.84" x2="605.136" y2="150.84" gradientUnits="userSpaceOnUse">
<stop stop-color="#2866D9"/>
<stop offset="1" stop-color="#D3142A"/>
</linearGradient>
<linearGradient id="paint1_linear_1003_26918" x1="88.703" y1="-32.3946" x2="352.837" y2="177.136" gradientUnits="userSpaceOnUse">
<stop stop-color="#2866D9"/>
<stop offset="1" stop-color="#D3142A"/>
</linearGradient>
<linearGradient id="paint2_linear_1003_26918" x1="99.433" y1="169.105" x2="473.192" y2="169.105" gradientUnits="userSpaceOnUse">
<stop stop-color="#2866D9"/>
<stop offset="1" stop-color="#D3142A"/>
</linearGradient>
<linearGradient id="paint3_linear_1003_26918" x1="99.4331" y1="166.74" x2="473.193" y2="166.74" gradientUnits="userSpaceOnUse">
<stop stop-color="#2866D9"/>
<stop offset="1" stop-color="#D3142A"/>
</linearGradient>
<linearGradient id="paint4_linear_1003_26918" x1="99.433" y1="164.493" x2="473.193" y2="164.493" gradientUnits="userSpaceOnUse">
<stop stop-color="#2866D9"/>
<stop offset="1" stop-color="#D3142A"/>
</linearGradient>
<linearGradient id="paint5_linear_1003_26918" x1="99.4323" y1="409.013" x2="473.194" y2="409.013" gradientUnits="userSpaceOnUse">
<stop stop-color="#2866D9"/>
<stop offset="1" stop-color="#D3142A"/>
</linearGradient>
<linearGradient id="paint6_linear_1003_26918" x1="99.4331" y1="171.576" x2="473.194" y2="171.576" gradientUnits="userSpaceOnUse">
<stop stop-color="#2866D9"/>
<stop offset="1" stop-color="#D3142A"/>
</linearGradient>
<linearGradient id="paint7_linear_1003_26918" x1="99.4331" y1="162.353" x2="473.193" y2="162.353" gradientUnits="userSpaceOnUse">
<stop stop-color="#2866D9"/>
<stop offset="1" stop-color="#D3142A"/>
</linearGradient>
<linearGradient id="paint8_linear_1003_26918" x1="99.432" y1="410.855" x2="473.194" y2="410.855" gradientUnits="userSpaceOnUse">
<stop stop-color="#2866D9"/>
<stop offset="1" stop-color="#D3142A"/>
</linearGradient>
<linearGradient id="paint9_linear_1003_26918" x1="99.433" y1="155.098" x2="473.191" y2="155.098" gradientUnits="userSpaceOnUse">
<stop stop-color="#2866D9"/>
<stop offset="1" stop-color="#D3142A"/>
</linearGradient>
<linearGradient id="paint10_linear_1003_26918" x1="99.433" y1="153.619" x2="473.195" y2="153.619" gradientUnits="userSpaceOnUse">
<stop stop-color="#2866D9"/>
<stop offset="1" stop-color="#D3142A"/>
</linearGradient>
<linearGradient id="paint11_linear_1003_26918" x1="99.433" y1="160.345" x2="473.193" y2="160.345" gradientUnits="userSpaceOnUse">
<stop stop-color="#2866D9"/>
<stop offset="1" stop-color="#D3142A"/>
</linearGradient>
<linearGradient id="paint12_linear_1003_26918" x1="99.4331" y1="156.709" x2="473.194" y2="156.709" gradientUnits="userSpaceOnUse">
<stop stop-color="#2866D9"/>
<stop offset="1" stop-color="#D3142A"/>
</linearGradient>
<linearGradient id="paint13_linear_1003_26918" x1="99.4329" y1="174.16" x2="473.194" y2="174.16" gradientUnits="userSpaceOnUse">
<stop stop-color="#2866D9"/>
<stop offset="1" stop-color="#D3142A"/>
</linearGradient>
<linearGradient id="paint14_linear_1003_26918" x1="99.4331" y1="215.145" x2="473.193" y2="215.145" gradientUnits="userSpaceOnUse">
<stop stop-color="#2866D9"/>
<stop offset="1" stop-color="#D3142A"/>
</linearGradient>
<linearGradient id="paint15_linear_1003_26918" x1="99.4331" y1="201.323" x2="473.194" y2="201.323" gradientUnits="userSpaceOnUse">
<stop stop-color="#2866D9"/>
<stop offset="1" stop-color="#D3142A"/>
</linearGradient>
<linearGradient id="paint16_linear_1003_26918" x1="99.433" y1="225.962" x2="473.194" y2="225.962" gradientUnits="userSpaceOnUse">
<stop stop-color="#2866D9"/>
<stop offset="1" stop-color="#D3142A"/>
</linearGradient>
<linearGradient id="paint17_linear_1003_26918" x1="99.433" y1="218.72" x2="473.193" y2="218.72" gradientUnits="userSpaceOnUse">
<stop stop-color="#2866D9"/>
<stop offset="1" stop-color="#D3142A"/>
</linearGradient>
<linearGradient id="paint18_linear_1003_26918" x1="99.4328" y1="222.321" x2="473.194" y2="222.321" gradientUnits="userSpaceOnUse">
<stop stop-color="#2866D9"/>
<stop offset="1" stop-color="#D3142A"/>
</linearGradient>
<linearGradient id="paint19_linear_1003_26918" x1="99.433" y1="185.427" x2="473.193" y2="185.427" gradientUnits="userSpaceOnUse">
<stop stop-color="#2866D9"/>
<stop offset="1" stop-color="#D3142A"/>
</linearGradient>
<linearGradient id="paint20_linear_1003_26918" x1="99.4331" y1="188.455" x2="473.193" y2="188.455" gradientUnits="userSpaceOnUse">
<stop stop-color="#2866D9"/>
<stop offset="1" stop-color="#D3142A"/>
</linearGradient>
<linearGradient id="paint21_linear_1003_26918" x1="99.4331" y1="191.57" x2="473.193" y2="191.57" gradientUnits="userSpaceOnUse">
<stop stop-color="#2866D9"/>
<stop offset="1" stop-color="#D3142A"/>
</linearGradient>
<linearGradient id="paint22_linear_1003_26918" x1="99.433" y1="198.004" x2="473.193" y2="198.004" gradientUnits="userSpaceOnUse">
<stop stop-color="#2866D9"/>
<stop offset="1" stop-color="#D3142A"/>
</linearGradient>
<linearGradient id="paint23_linear_1003_26918" x1="99.4332" y1="194.752" x2="473.193" y2="194.752" gradientUnits="userSpaceOnUse">
<stop stop-color="#2866D9"/>
<stop offset="1" stop-color="#D3142A"/>
</linearGradient>
<linearGradient id="paint24_linear_1003_26918" x1="99.4328" y1="391.268" x2="473.193" y2="391.268" gradientUnits="userSpaceOnUse">
<stop stop-color="#2866D9"/>
<stop offset="1" stop-color="#D3142A"/>
</linearGradient>
<linearGradient id="paint25_linear_1003_26918" x1="99.4384" y1="367.769" x2="473.193" y2="367.769" gradientUnits="userSpaceOnUse">
<stop stop-color="#2866D9"/>
<stop offset="1" stop-color="#D3142A"/>
</linearGradient>
<linearGradient id="paint26_linear_1003_26918" x1="99.4329" y1="365.671" x2="473.193" y2="365.671" gradientUnits="userSpaceOnUse">
<stop stop-color="#2866D9"/>
<stop offset="1" stop-color="#D3142A"/>
</linearGradient>
<linearGradient id="paint27_linear_1003_26918" x1="99.4306" y1="376.664" x2="473.194" y2="376.664" gradientUnits="userSpaceOnUse">
<stop stop-color="#2866D9"/>
<stop offset="1" stop-color="#D3142A"/>
</linearGradient>
<linearGradient id="paint28_linear_1003_26918" x1="99.4348" y1="374.366" x2="473.193" y2="374.366" gradientUnits="userSpaceOnUse">
<stop stop-color="#2866D9"/>
<stop offset="1" stop-color="#D3142A"/>
</linearGradient>
<linearGradient id="paint29_linear_1003_26918" x1="99.437" y1="357.98" x2="473.193" y2="357.98" gradientUnits="userSpaceOnUse">
<stop stop-color="#2866D9"/>
<stop offset="1" stop-color="#D3142A"/>
</linearGradient>
<linearGradient id="paint30_linear_1003_26918" x1="99.4329" y1="354.591" x2="473.193" y2="354.591" gradientUnits="userSpaceOnUse">
<stop stop-color="#2866D9"/>
<stop offset="1" stop-color="#D3142A"/>
</linearGradient>
<linearGradient id="paint31_linear_1003_26918" x1="99.4346" y1="356.297" x2="473.193" y2="356.297" gradientUnits="userSpaceOnUse">
<stop stop-color="#2866D9"/>
<stop offset="1" stop-color="#D3142A"/>
</linearGradient>
<linearGradient id="paint32_linear_1003_26918" x1="99.4346" y1="353.092" x2="473.193" y2="353.092" gradientUnits="userSpaceOnUse">
<stop stop-color="#2866D9"/>
<stop offset="1" stop-color="#D3142A"/>
</linearGradient>
<linearGradient id="paint33_linear_1003_26918" x1="99.4331" y1="379.02" x2="473.193" y2="379.02" gradientUnits="userSpaceOnUse">
<stop stop-color="#2866D9"/>
<stop offset="1" stop-color="#D3142A"/>
</linearGradient>
<linearGradient id="paint34_linear_1003_26918" x1="99.4354" y1="361.687" x2="473.193" y2="361.687" gradientUnits="userSpaceOnUse">
<stop stop-color="#2866D9"/>
<stop offset="1" stop-color="#D3142A"/>
</linearGradient>
<linearGradient id="paint35_linear_1003_26918" x1="99.434" y1="405.394" x2="473.193" y2="405.394" gradientUnits="userSpaceOnUse">
<stop stop-color="#2866D9"/>
<stop offset="1" stop-color="#D3142A"/>
</linearGradient>
<linearGradient id="paint36_linear_1003_26918" x1="99.4313" y1="400.06" x2="473.194" y2="400.06" gradientUnits="userSpaceOnUse">
<stop stop-color="#2866D9"/>
<stop offset="1" stop-color="#D3142A"/>
</linearGradient>
<linearGradient id="paint37_linear_1003_26918" x1="99.4279" y1="396.547" x2="473.195" y2="396.547" gradientUnits="userSpaceOnUse">
<stop stop-color="#2866D9"/>
<stop offset="1" stop-color="#D3142A"/>
</linearGradient>
<linearGradient id="paint38_linear_1003_26918" x1="99.4374" y1="403.611" x2="473.192" y2="403.611" gradientUnits="userSpaceOnUse">
<stop stop-color="#2866D9"/>
<stop offset="1" stop-color="#D3142A"/>
</linearGradient>
<linearGradient id="paint39_linear_1003_26918" x1="99.4343" y1="401.833" x2="473.193" y2="401.833" gradientUnits="userSpaceOnUse">
<stop stop-color="#2866D9"/>
<stop offset="1" stop-color="#D3142A"/>
</linearGradient>
<linearGradient id="paint40_linear_1003_26918" x1="99.4337" y1="388.773" x2="473.193" y2="388.773" gradientUnits="userSpaceOnUse">
<stop stop-color="#2866D9"/>
<stop offset="1" stop-color="#D3142A"/>
</linearGradient>
<linearGradient id="paint41_linear_1003_26918" x1="99.4353" y1="386.271" x2="473.193" y2="386.271" gradientUnits="userSpaceOnUse">
<stop stop-color="#2866D9"/>
<stop offset="1" stop-color="#D3142A"/>
</linearGradient>
<linearGradient id="paint42_linear_1003_26918" x1="99.433" y1="394.802" x2="473.193" y2="394.802" gradientUnits="userSpaceOnUse">
<stop stop-color="#2866D9"/>
<stop offset="1" stop-color="#D3142A"/>
</linearGradient>
<linearGradient id="paint43_linear_1003_26918" x1="99.4351" y1="383.827" x2="473.193" y2="383.827" gradientUnits="userSpaceOnUse">
<stop stop-color="#2866D9"/>
<stop offset="1" stop-color="#D3142A"/>
</linearGradient>
<linearGradient id="paint44_linear_1003_26918" x1="99.4456" y1="393.07" x2="473.191" y2="393.07" gradientUnits="userSpaceOnUse">
<stop stop-color="#2866D9"/>
<stop offset="1" stop-color="#D3142A"/>
</linearGradient>
<linearGradient id="paint45_linear_1003_26918" x1="99.4327" y1="229.633" x2="473.194" y2="229.633" gradientUnits="userSpaceOnUse">
<stop stop-color="#2866D9"/>
<stop offset="1" stop-color="#D3142A"/>
</linearGradient>
<linearGradient id="paint46_linear_1003_26918" x1="99.4331" y1="259.476" x2="473.193" y2="259.476" gradientUnits="userSpaceOnUse">
<stop stop-color="#2866D9"/>
<stop offset="1" stop-color="#D3142A"/>
</linearGradient>
<linearGradient id="paint47_linear_1003_26918" x1="99.4328" y1="277.864" x2="473.194" y2="277.864" gradientUnits="userSpaceOnUse">
<stop stop-color="#2866D9"/>
<stop offset="1" stop-color="#D3142A"/>
</linearGradient>
<linearGradient id="paint48_linear_1003_26918" x1="99.433" y1="248.245" x2="473.194" y2="248.245" gradientUnits="userSpaceOnUse">
<stop stop-color="#2866D9"/>
<stop offset="1" stop-color="#D3142A"/>
</linearGradient>
<linearGradient id="paint49_linear_1003_26918" x1="99.433" y1="317.075" x2="473.193" y2="317.075" gradientUnits="userSpaceOnUse">
<stop stop-color="#2866D9"/>
<stop offset="1" stop-color="#D3142A"/>
</linearGradient>
<linearGradient id="paint50_linear_1003_26918" x1="99.4333" y1="211.614" x2="473.192" y2="211.614" gradientUnits="userSpaceOnUse">
<stop stop-color="#2866D9"/>
<stop offset="1" stop-color="#D3142A"/>
</linearGradient>
<linearGradient id="paint51_linear_1003_26918" x1="99.4335" y1="301.993" x2="473.193" y2="301.993" gradientUnits="userSpaceOnUse">
<stop stop-color="#2866D9"/>
<stop offset="1" stop-color="#D3142A"/>
</linearGradient>
<linearGradient id="paint52_linear_1003_26918" x1="99.4339" y1="305.196" x2="473.192" y2="305.196" gradientUnits="userSpaceOnUse">
<stop stop-color="#2866D9"/>
<stop offset="1" stop-color="#D3142A"/>
</linearGradient>
<linearGradient id="paint53_linear_1003_26918" x1="99.433" y1="266.897" x2="473.193" y2="266.897" gradientUnits="userSpaceOnUse">
<stop stop-color="#2866D9"/>
<stop offset="1" stop-color="#D3142A"/>
</linearGradient>
<linearGradient id="paint54_linear_1003_26918" x1="99.4346" y1="311.346" x2="473.192" y2="311.346" gradientUnits="userSpaceOnUse">
<stop stop-color="#2866D9"/>
<stop offset="1" stop-color="#D3142A"/>
</linearGradient>
<linearGradient id="paint55_linear_1003_26918" x1="99.4326" y1="274.237" x2="473.194" y2="274.237" gradientUnits="userSpaceOnUse">
<stop stop-color="#2866D9"/>
<stop offset="1" stop-color="#D3142A"/>
</linearGradient>
<linearGradient id="paint56_linear_1003_26918" x1="99.4332" y1="263.195" x2="473.194" y2="263.195" gradientUnits="userSpaceOnUse">
<stop stop-color="#2866D9"/>
<stop offset="1" stop-color="#D3142A"/>
</linearGradient>
<linearGradient id="paint57_linear_1003_26918" x1="99.4337" y1="288.519" x2="473.193" y2="288.519" gradientUnits="userSpaceOnUse">
<stop stop-color="#2866D9"/>
<stop offset="1" stop-color="#D3142A"/>
</linearGradient>
<linearGradient id="paint58_linear_1003_26918" x1="99.436" y1="150.159" x2="473.196" y2="150.159" gradientUnits="userSpaceOnUse">
<stop stop-color="#2866D9"/>
<stop offset="1" stop-color="#D3142A"/>
</linearGradient>
<linearGradient id="paint59_linear_1003_26918" x1="99.4335" y1="270.583" x2="473.193" y2="270.583" gradientUnits="userSpaceOnUse">
<stop stop-color="#2866D9"/>
<stop offset="1" stop-color="#D3142A"/>
</linearGradient>
<linearGradient id="paint60_linear_1003_26918" x1="99.4331" y1="233.325" x2="473.193" y2="233.325" gradientUnits="userSpaceOnUse">
<stop stop-color="#2866D9"/>
<stop offset="1" stop-color="#D3142A"/>
</linearGradient>
<linearGradient id="paint61_linear_1003_26918" x1="99.4333" y1="237.037" x2="473.193" y2="237.037" gradientUnits="userSpaceOnUse">
<stop stop-color="#2866D9"/>
<stop offset="1" stop-color="#D3142A"/>
</linearGradient>
<linearGradient id="paint62_linear_1003_26918" x1="99.433" y1="313.758" x2="473.193" y2="313.758" gradientUnits="userSpaceOnUse">
<stop stop-color="#2866D9"/>
<stop offset="1" stop-color="#D3142A"/>
</linearGradient>
<linearGradient id="paint63_linear_1003_26918" x1="99.4329" y1="244.504" x2="473.194" y2="244.504" gradientUnits="userSpaceOnUse">
<stop stop-color="#2866D9"/>
<stop offset="1" stop-color="#D3142A"/>
</linearGradient>
<linearGradient id="paint64_linear_1003_26918" x1="99.4337" y1="285.014" x2="473.193" y2="285.014" gradientUnits="userSpaceOnUse">
<stop stop-color="#2866D9"/>
<stop offset="1" stop-color="#D3142A"/>
</linearGradient>
<linearGradient id="paint65_linear_1003_26918" x1="461.89" y1="420.998" x2="115.98" y2="111.9" gradientUnits="userSpaceOnUse">
<stop stop-color="#2866D9"/>
<stop offset="1" stop-color="#D3142A"/>
</linearGradient>
<linearGradient id="paint66_linear_1003_26918" x1="453.058" y1="430.881" x2="107.145" y2="121.786" gradientUnits="userSpaceOnUse">
<stop stop-color="#2866D9"/>
<stop offset="1" stop-color="#D3142A"/>
</linearGradient>
<linearGradient id="paint67_linear_1003_26918" x1="440.279" y1="445.184" x2="94.3673" y2="136.091" gradientUnits="userSpaceOnUse">
<stop stop-color="#2866D9"/>
<stop offset="1" stop-color="#D3142A"/>
</linearGradient>
<linearGradient id="paint68_linear_1003_26918" x1="451.2" y1="432.959" x2="105.289" y2="123.868" gradientUnits="userSpaceOnUse">
<stop stop-color="#2866D9"/>
<stop offset="1" stop-color="#D3142A"/>
</linearGradient>
<linearGradient id="paint69_linear_1003_26918" x1="438.814" y1="446.823" x2="92.9029" y2="137.731" gradientUnits="userSpaceOnUse">
<stop stop-color="#2866D9"/>
<stop offset="1" stop-color="#D3142A"/>
</linearGradient>
<linearGradient id="paint70_linear_1003_26918" x1="448.977" y1="435.449" x2="103.062" y2="126.359" gradientUnits="userSpaceOnUse">
<stop stop-color="#2866D9"/>
<stop offset="1" stop-color="#D3142A"/>
</linearGradient>
<linearGradient id="paint71_linear_1003_26918" x1="484.754" y1="395.413" x2="138.842" y2="86.3178" gradientUnits="userSpaceOnUse">
<stop stop-color="#2866D9"/>
<stop offset="1" stop-color="#D3142A"/>
</linearGradient>
<linearGradient id="paint72_linear_1003_26918" x1="427.156" y1="459.867" x2="81.2467" y2="150.776" gradientUnits="userSpaceOnUse">
<stop stop-color="#2866D9"/>
<stop offset="1" stop-color="#D3142A"/>
</linearGradient>
<linearGradient id="paint73_linear_1003_26918" x1="488.705" y1="390.991" x2="142.775" y2="81.9073" gradientUnits="userSpaceOnUse">
<stop stop-color="#2866D9"/>
<stop offset="1" stop-color="#D3142A"/>
</linearGradient>
<linearGradient id="paint74_linear_1003_26918" x1="490.43" y1="389.057" x2="144.524" y2="79.9703" gradientUnits="userSpaceOnUse">
<stop stop-color="#2866D9"/>
<stop offset="1" stop-color="#D3142A"/>
</linearGradient>
<linearGradient id="paint75_linear_1003_26918" x1="465.126" y1="417.377" x2="119.218" y2="108.289" gradientUnits="userSpaceOnUse">
<stop stop-color="#2866D9"/>
<stop offset="1" stop-color="#D3142A"/>
</linearGradient>
<linearGradient id="paint76_linear_1003_26918" x1="424.985" y1="462.3" x2="79.074" y2="153.209" gradientUnits="userSpaceOnUse">
<stop stop-color="#2866D9"/>
<stop offset="1" stop-color="#D3142A"/>
</linearGradient>
<linearGradient id="paint77_linear_1003_26918" x1="493.842" y1="385.239" x2="309.121" y2="220.197" gradientUnits="userSpaceOnUse">
<stop stop-color="#2866D9"/>
<stop offset="1" stop-color="#D3142A"/>
</linearGradient>
<linearGradient id="paint78_linear_1003_26918" x1="492.266" y1="387.009" x2="332.181" y2="243.964" gradientUnits="userSpaceOnUse">
<stop stop-color="#2866D9"/>
<stop offset="1" stop-color="#D3142A"/>
</linearGradient>
<linearGradient id="paint79_linear_1003_26918" x1="442.054" y1="443.198" x2="96.1429" y2="134.106" gradientUnits="userSpaceOnUse">
<stop stop-color="#2866D9"/>
<stop offset="1" stop-color="#D3142A"/>
</linearGradient>
<linearGradient id="paint80_linear_1003_26918" x1="472.891" y1="408.685" x2="126.973" y2="99.5922" gradientUnits="userSpaceOnUse">
<stop stop-color="#2866D9"/>
<stop offset="1" stop-color="#D3142A"/>
</linearGradient>
<linearGradient id="paint81_linear_1003_26918" x1="482.424" y1="398.017" x2="136.509" y2="88.9195" gradientUnits="userSpaceOnUse">
<stop stop-color="#2866D9"/>
<stop offset="1" stop-color="#D3142A"/>
</linearGradient>
<linearGradient id="paint82_linear_1003_26918" x1="467.57" y1="414.642" x2="121.651" y2="105.548" gradientUnits="userSpaceOnUse">
<stop stop-color="#2866D9"/>
<stop offset="1" stop-color="#D3142A"/>
</linearGradient>
<linearGradient id="paint83_linear_1003_26918" x1="470.59" y1="411.263" x2="124.671" y2="102.17" gradientUnits="userSpaceOnUse">
<stop stop-color="#2866D9"/>
<stop offset="1" stop-color="#D3142A"/>
</linearGradient>
<linearGradient id="paint84_linear_1003_26918" x1="477.846" y1="403.138" x2="131.943" y2="94.0481" gradientUnits="userSpaceOnUse">
<stop stop-color="#2866D9"/>
<stop offset="1" stop-color="#D3142A"/>
</linearGradient>
<linearGradient id="paint85_linear_1003_26918" x1="475.685" y1="405.561" x2="129.769" y2="96.4726" gradientUnits="userSpaceOnUse">
<stop stop-color="#2866D9"/>
<stop offset="1" stop-color="#D3142A"/>
</linearGradient>
<linearGradient id="paint86_linear_1003_26918" x1="428.824" y1="458.006" x2="82.911" y2="148.915" gradientUnits="userSpaceOnUse">
<stop stop-color="#2866D9"/>
<stop offset="1" stop-color="#D3142A"/>
</linearGradient>
<linearGradient id="paint87_linear_1003_26918" x1="429.554" y1="457.185" x2="83.6425" y2="148.095" gradientUnits="userSpaceOnUse">
<stop stop-color="#2866D9"/>
<stop offset="1" stop-color="#D3142A"/>
</linearGradient>
<linearGradient id="paint88_linear_1003_26918" x1="428.168" y1="458.737" x2="82.2572" y2="149.643" gradientUnits="userSpaceOnUse">
<stop stop-color="#2866D9"/>
<stop offset="1" stop-color="#D3142A"/>
</linearGradient>
<linearGradient id="paint89_linear_1003_26918" x1="427.443" y1="459.549" x2="81.5314" y2="150.457" gradientUnits="userSpaceOnUse">
<stop stop-color="#2866D9"/>
<stop offset="1" stop-color="#D3142A"/>
</linearGradient>
<linearGradient id="paint90_linear_1003_26918" x1="428.485" y1="458.38" x2="82.5746" y2="149.289" gradientUnits="userSpaceOnUse">
<stop stop-color="#2866D9"/>
<stop offset="1" stop-color="#D3142A"/>
</linearGradient>
<linearGradient id="paint91_linear_1003_26918" x1="429.182" y1="457.602" x2="83.2709" y2="148.51" gradientUnits="userSpaceOnUse">
<stop stop-color="#2866D9"/>
<stop offset="1" stop-color="#D3142A"/>
</linearGradient>
<linearGradient id="paint92_linear_1003_26918" x1="430.741" y1="455.859" x2="84.8284" y2="146.768" gradientUnits="userSpaceOnUse">
<stop stop-color="#2866D9"/>
<stop offset="1" stop-color="#D3142A"/>
</linearGradient>
<linearGradient id="paint93_linear_1003_26918" x1="428.61" y1="458.242" x2="82.6987" y2="149.151" gradientUnits="userSpaceOnUse">
<stop stop-color="#2866D9"/>
<stop offset="1" stop-color="#D3142A"/>
</linearGradient>
<linearGradient id="paint94_linear_1003_26918" x1="429.94" y1="456.755" x2="84.026" y2="147.665" gradientUnits="userSpaceOnUse">
<stop stop-color="#2866D9"/>
<stop offset="1" stop-color="#D3142A"/>
</linearGradient>
<linearGradient id="paint95_linear_1003_26918" x1="427.181" y1="459.844" x2="81.2689" y2="150.752" gradientUnits="userSpaceOnUse">
<stop stop-color="#2866D9"/>
<stop offset="1" stop-color="#D3142A"/>
</linearGradient>
<linearGradient id="paint96_linear_1003_26918" x1="426.852" y1="460.213" x2="80.9402" y2="151.12" gradientUnits="userSpaceOnUse">
<stop stop-color="#2866D9"/>
<stop offset="1" stop-color="#D3142A"/>
</linearGradient>
<linearGradient id="paint97_linear_1003_26918" x1="426.832" y1="460.232" x2="80.921" y2="151.14" gradientUnits="userSpaceOnUse">
<stop stop-color="#2866D9"/>
<stop offset="1" stop-color="#D3142A"/>
</linearGradient>
<linearGradient id="paint98_linear_1003_26918" x1="426.755" y1="460.318" x2="80.8429" y2="151.228" gradientUnits="userSpaceOnUse">
<stop stop-color="#2866D9"/>
<stop offset="1" stop-color="#D3142A"/>
</linearGradient>
<linearGradient id="paint99_linear_1003_26918" x1="426.738" y1="460.336" x2="80.8273" y2="151.245" gradientUnits="userSpaceOnUse">
<stop stop-color="#2866D9"/>
<stop offset="1" stop-color="#D3142A"/>
</linearGradient>
<linearGradient id="paint100_linear_1003_26918" x1="427.871" y1="459.067" x2="81.9593" y2="149.976" gradientUnits="userSpaceOnUse">
<stop stop-color="#2866D9"/>
<stop offset="1" stop-color="#D3142A"/>
</linearGradient>
<linearGradient id="paint101_linear_1003_26918" x1="426.877" y1="460.184" x2="80.9473" y2="151.095" gradientUnits="userSpaceOnUse">
<stop stop-color="#2866D9"/>
<stop offset="1" stop-color="#D3142A"/>
</linearGradient>
<linearGradient id="paint102_linear_1003_26918" x1="429.569" y1="457.169" x2="83.6631" y2="148.079" gradientUnits="userSpaceOnUse">
<stop stop-color="#2866D9"/>
<stop offset="1" stop-color="#D3142A"/>
</linearGradient>
<linearGradient id="paint103_linear_1003_26918" x1="433.905" y1="452.318" x2="87.9946" y2="143.225" gradientUnits="userSpaceOnUse">
<stop stop-color="#2866D9"/>
<stop offset="1" stop-color="#D3142A"/>
</linearGradient>
<linearGradient id="paint104_linear_1003_26918" x1="451.886" y1="465.358" x2="89.6912" y2="139.921" gradientUnits="userSpaceOnUse">
<stop stop-color="#2866D9"/>
<stop offset="1" stop-color="#D3142A"/>
</linearGradient>
<linearGradient id="paint105_linear_1003_26918" x1="431.15" y1="455.405" x2="85.2334" y2="146.315" gradientUnits="userSpaceOnUse">
<stop stop-color="#2866D9"/>
<stop offset="1" stop-color="#D3142A"/>
</linearGradient>
<linearGradient id="paint106_linear_1003_26918" x1="434.255" y1="451.939" x2="88.3254" y2="142.855" gradientUnits="userSpaceOnUse">
<stop stop-color="#2866D9"/>
<stop offset="1" stop-color="#D3142A"/>
</linearGradient>
<linearGradient id="paint107_linear_1003_26918" x1="436.174" y1="449.775" x2="90.2626" y2="140.684" gradientUnits="userSpaceOnUse">
<stop stop-color="#2866D9"/>
<stop offset="1" stop-color="#D3142A"/>
</linearGradient>
<linearGradient id="paint108_linear_1003_26918" x1="437.211" y1="448.616" x2="91.3043" y2="139.522" gradientUnits="userSpaceOnUse">
<stop stop-color="#2866D9"/>
<stop offset="1" stop-color="#D3142A"/>
</linearGradient>
<linearGradient id="paint109_linear_1003_26918" x1="434.995" y1="451.097" x2="89.0846" y2="142.007" gradientUnits="userSpaceOnUse">
<stop stop-color="#2866D9"/>
<stop offset="1" stop-color="#D3142A"/>
</linearGradient>
<linearGradient id="paint110_linear_1003_26918" x1="434.725" y1="451.4" x2="88.8081" y2="142.309" gradientUnits="userSpaceOnUse">
<stop stop-color="#2866D9"/>
<stop offset="1" stop-color="#D3142A"/>
</linearGradient>
<linearGradient id="paint111_linear_1003_26918" x1="431.972" y1="454.479" x2="86.065" y2="145.386" gradientUnits="userSpaceOnUse">
<stop stop-color="#2866D9"/>
<stop offset="1" stop-color="#D3142A"/>
</linearGradient>
<linearGradient id="paint112_linear_1003_26918" x1="429.735" y1="456.983" x2="83.8246" y2="147.891" gradientUnits="userSpaceOnUse">
<stop stop-color="#2866D9"/>
<stop offset="1" stop-color="#D3142A"/>
</linearGradient>
<linearGradient id="paint113_linear_1003_26918" x1="430.408" y1="456.235" x2="84.493" y2="147.143" gradientUnits="userSpaceOnUse">
<stop stop-color="#2866D9"/>
<stop offset="1" stop-color="#D3142A"/>
</linearGradient>
<linearGradient id="paint114_linear_1003_26918" x1="433.907" y1="452.311" x2="87.9933" y2="143.225" gradientUnits="userSpaceOnUse">
<stop stop-color="#2866D9"/>
<stop offset="1" stop-color="#D3142A"/>
</linearGradient>
<linearGradient id="paint115_linear_1003_26918" x1="431.99" y1="454.46" x2="86.0751" y2="145.37" gradientUnits="userSpaceOnUse">
<stop stop-color="#2866D9"/>
<stop offset="1" stop-color="#D3142A"/>
</linearGradient>
<linearGradient id="paint116_linear_1003_26918" x1="433.542" y1="452.718" x2="87.6287" y2="143.632" gradientUnits="userSpaceOnUse">
<stop stop-color="#2866D9"/>
<stop offset="1" stop-color="#D3142A"/>
</linearGradient>
<linearGradient id="paint117_linear_1003_26918" x1="431.159" y1="455.389" x2="85.2488" y2="146.298" gradientUnits="userSpaceOnUse">
<stop stop-color="#2866D9"/>
<stop offset="1" stop-color="#D3142A"/>
</linearGradient>
<linearGradient id="paint118_linear_1003_26918" x1="433.171" y1="453.139" x2="87.2642" y2="144.043" gradientUnits="userSpaceOnUse">
<stop stop-color="#2866D9"/>
<stop offset="1" stop-color="#D3142A"/>
</linearGradient>
<linearGradient id="paint119_linear_1003_26918" x1="99.433" y1="283.968" x2="473.192" y2="283.968" gradientUnits="userSpaceOnUse">
<stop stop-color="#2866D9"/>
<stop offset="1" stop-color="#D3142A"/>
</linearGradient>
<linearGradient id="paint120_linear_1003_26918" x1="450.975" y1="433.212" x2="105.063" y2="124.12" gradientUnits="userSpaceOnUse">
<stop stop-color="#2866D9"/>
<stop offset="1" stop-color="#D3142A"/>
</linearGradient>
<linearGradient id="paint121_linear_1003_26918" x1="410.608" y1="-19.7662" x2="564.715" y2="273.926" gradientUnits="userSpaceOnUse">
<stop stop-color="#2866D9"/>
<stop offset="1" stop-color="#D3142A"/>
</linearGradient>
<linearGradient id="paint122_linear_1003_26918" x1="537.533" y1="286.009" x2="111.531" y2="89.3764" gradientUnits="userSpaceOnUse">
<stop stop-color="#2866D9"/>
<stop offset="1" stop-color="#D3142A"/>
</linearGradient>
<linearGradient id="paint123_linear_1003_26918" x1="293.47" y1="452.366" x2="267.942" y2="334.227" gradientUnits="userSpaceOnUse">
<stop stop-color="#2866D9"/>
<stop offset="1" stop-color="#D3142A"/>
</linearGradient>
<clipPath id="clip0_1003_26918">
<rect width="700" height="558.427" fill="white"/>
</clipPath>
</defs>
</svg>
